<svg xmlns="http://www.w3.org/2000/svg" width="200" height="200" viewBox="0 0 24 24">
  <rect width="100%" height="100%" fill="#0f172a" rx="6"/>
  <path fill="#fff" d="M12 .5C5.65.5.5 5.65.5 12c0 5.08 3.29 9.39 7.86 10.91.58.11.79-.25.79-.56 0-.28-.01-1.02-.02-2-3.2.7-3.88-1.54-3.88-1.54-.53-1.35-1.3-1.71-1.3-1.71-1.06-.72.08-.71.08-.71 1.17.08 1.78 1.2 1.78 1.2 1.04 1.78 2.72 1.27 3.38.97.11-.76.41-1.27.74-1.56-2.56-.29-5.26-1.28-5.26-5.7 0-1.26.45-2.29 1.2-3.1-.12-.3-.52-1.52.11-3.17 0 0 .98-.31 3.2 1.19a11.1 11.1 0 0 1 2.92-.39c.99 0 1.98.13 2.92.39 2.22-1.5 3.2-1.19 3.2-1.19.63 1.65.23 2.87.11 3.17.75.81 1.2 1.84 1.2 3.1 0 4.43-2.71 5.4-5.29 5.68.42.36.8 1.08.8 2.18 0 1.58-.01 2.86-.01 3.25 0 .31.21.68.8.56C20.21 21.39 23.5 17.08 23.5 12 23.5 5.65 18.35.5 12 .5z"/>
</svg>
